<svg width="72" height="26" fill="none" xmlns="http://www.w3.org/2000/svg"><path d="M2.205 15.4l-.02.02c.02-.02.02-.02.02-.04v-.1c.22-1.18.64-2.34 1.06-3.48.44-1.2.86-2.38 1.42-3.52.52-1.08 1.12-2.14 1.8-3.12.6-.9 1.32-1.88 2.24-2.48.28-.08.56-.38.92-.32s.36.44.28.8c.1-.28.16-.58-.08-.78-.32-.24-.94.14-1.2.32-.12.04-.24.12-.34.2.06-.06.14-.12.24-.18l-.1.04.28-.16c.32-.18 1.04-.58 1.28-.06.18.42-.1 1.12-.24 1.52-.26.68-.58 1.32-.92 1.96.06-.14.3-.68.3-.68-.14-.02-.78 1.46-.9 1.5h.02c-.08.06-.14.12-.14.14-.04.24.24.18.4.16.68-.08 1.56-.66 2-1.16.48-.54.66-1.36.66-2.08v-.02c-.02-1.36-.96-3.08-2.58-2.98-.9.04-1.74.92-2.32 1.52-.42.48-.82 1-1.18 1.52-.16.24-.32.46-.46.7-.16.22-.48.56-.56.82 0 0 .1-.12.18-.2-.22.34-.42.7-.62 1.04-.02-.02.12-.3.12-.3-.18-.04-1 1.6-1.1 1.78-.36.66-.68 1.32-.9 2.02-.24.78-.56 1.52-.8 2.28-.12.38-.24.74-.32 1.12-.04.18-.08.34-.1.52 0 .02-.04.34 0 .3-.04.14-.04.32-.06.46 0 0 0-.34.02-.38-.08.1-.02.48-.04.52-.1.76-.26 1.56 0 2.3.34 1.02 1.18 1.86 2.1 2.4.48.3 1.12.64 1.72.6.7-.04 1.38-.62 1.9-1.04 1.52-1.28 2.9-3.08 3.16-5.12.02-.14.12-.84-.12-.86-.22-.02-.38.46-.46.58-.6.98-1.3 1.9-2.08 2.74-.8.88-1.8 1.82-3.02 2.1-.16.04-.34.06-.52.06-.24-.02-.46-.08-.64-.26-.1-.1-.2-.44-.32-.5 0-.1-.02-.2-.04-.26l-.06-.12c-.02-.6 0-1.16.1-1.78v-.02c0-.02.02-.02.02-.04zm3.52-9.78c-.78 1.28-1.44 2.6-2.1 3.96-.38.8-.76 1.62-1.06 2.48.42-1.34.92-2.62 1.52-3.9.72-1.54 1.68-3.04 2.82-4.28-.46.56-.86 1.2-1.18 1.74zm2.06-2.2c-.28.28-.54.6-.78.9.38-.5.78-1 1.28-1.4-.18.16-.36.36-.5.5zm2.04.16c.04-.12.08-.26.1-.42-.04.18-.12.36-.12.5.02-.04.02-.06.02-.08zm10.881 8.44s.02.02 0-.02c-.1-.14-.24-.04-.38 0-.58.12-1.18.26-1.78.36.22-.72.44-1.48.52-2.22.04-.28.06-.58 0-.86-.04-.18-.1-.36-.2-.52 0 0-.24-.3-.18-.14l-.02-.02-.08-.16.08.08c.02-.12-.32-.34-.32-.34-.5-.5-1.18-.88-1.86-.5-.42.24-.76.64-1.04 1.04-.1.14-.2.3-.28.46-.08.16-.2.68-.32.76-.1.08-.4.1-.54.18-.2.08-.38.18-.54.3-.38.24-.68.58-.96.92-.48.64-.72 1.36-1.06 2-.64 1.22.06 2.82 1.24 3.4.38.18.82.26 1.22.22.42-.06.82-.28 1.14-.52.3-.22.96-.62 1.08-.96 0-.02-.04 0-.1.06l.58-.68c.02.02-.14.22-.14.22.14.06.86-1 .94-1.08.14-.24.28-.5.44-.74.14-.18.1-.16.3-.24-.02.02.24-.06.28-.06.22-.04 2.56-.2 1.98-.94zm-6.92 4.04h-.02c-1.66.24.26-3.28.3-3.48l-.12.18c.3-.6.58-1.08.72-1.24.22 1 1.3 1.38 2.18 1.5-.58 1.16-1.66 2.78-3.06 3.04zm3.94-5.54c-.14.56-.26 1.3-.56 1.8-.1.2-.04.14-.24.18-.12.04-.38 0-.5-.02-.22-.02-.48-.06-.64-.2-.28-.24-.24-.62-.2-.96.04-.34.14-.66.26-.98.06-.12.44-.76.38-.88-.02-.06-.24.3-.26.32.12-.22.24-.34.34-.48-.02 0 0-.02.02-.06v.02l.02-.04s0-.02.02-.02c.3-.4 1.04-1.3 1.44-.68.3.52.02 1.5-.08 2zm-1.38-1.3l.02-.02c0 .02-.02.02-.02.02zm15.992 2.9v-.02c-.12-.66-1.02.44-1.14.54-.58.64-1.12 1.34-1.64 2.04-.52.72-1.02 1.44-1.56 2.16-.26.36-.52.7-.82 1.02-.1.12-.34.46-.52.46-.7 0-.16-2.82-.08-3.26.12-.78.18-1.82.68-2.44.12-.16 1.48-1.9 1.48-1.9-.04-.02-.2.18-.3.3l.86-1.16.06-.08h.02-.02l.16-.22c.02.02 0 .06-.02.1l.18-.2.52-.68c.38-.54.74-1.12 1.08-1.68.54-.92 1.28-2.24.88-3.36-.3-.82-1.4-.98-2.14-.7-.54.2-1 .62-1.38 1.06-.2.26-.4.54-.58.84-.06.08-.32.72-.38.8h.02c-.12.22-.24.44-.32.66.04-.16.14-.48.22-.54-.16.12-.3.7-.34.76-.76 1.66-1.42 3.34-1.9 5.1-.54-.62-1.4-1.68-2.34-1.3-.78.32-1.36 1.14-1.76 1.86-.36.64-.46 1.3-.72 1.92-.46 1.06-.68 3.24.88 3.56.48.1.92-.2 1.3-.46.68-.5 1.32-1.08 1.92-1.68-.1 1.06-.32 2.66.54 3.5 1.06 1.08 2.12-.38 2.76-1.18.82-1.04 1.46-2.2 2.28-3.2.4-.48.8-.96 1.22-1.4.32-.32.96-.72.9-1.22zm-7.36 1.32c-.02.06-.02.1-.02.1-.08.48-.08.9-.42 1.24-.3.32-.62.62-.94.92-.3.28-1.02 1.1-1.48 1.06-.56-.06-.14-1.34.14-2.12-.3.8-.78 2.1-.12 2.14.18.02.48-.14.74-.36-.24.22-.64.52-.88.4-.46-.2-.06-1.34.02-1.66.26-.92.64-1.8 1.08-2.64.22-.42.54-1.1.96-1.14l-.1.06c.02-.02.04-.02.06-.02.14-.04.28.06.38.14.26.18.42.52.6.78.2.32.06.66-.02 1.02v.08zm3.22-4.62c0-.02 0-.06.02-.08v-.02c.02-.06.04-.08.04-.08v-.02c.46-1.28.96-2.56 1.68-3.72.18-.3.7-1.22 1.16-.96.18.1.22.36.22.54.08 1.2-.88 2.62-1.48 3.58a33.82 33.82 0 01-2.3 3.24l.44-.46.4-.5-1.02 1.32-.14.18-.08.08c.02-.12.12-.24.22-.38-.04.04-.08.08-.1.12.26-.86.54-1.72.84-2.58-.02.02 0-.02.02-.1l.06-.1c0-.02 0-.04.02-.06zm-1.68 1.64c-.04.1-.16.56-.22.62 0 .02-.02.04-.04.04.16-.2.06-.46.14-.7.04-.12.24-.34.28-.5 0 .16-.1.44-.16.54zM23.338 16c.5-.44.98-.9 1.44-1.38-.04.26-.66.7-.88.9-.26.26-.56.52-.86.76h-.02l.32-.28zm3.54-7.36c-.08.24-.18.46-.3.68.1-.3.16-.6.3-.88.12-.22.26-.5.36-.76-.1.32-.26.66-.36.96zm1.3.24l-.08.2c0-.02.02-.06.02-.1l.06-.1zm-4.32 2.64c-.08.06-.14.14-.16.14.04 0 .1-.08.16-.14zm.56-.04c.04.02.08.04.12.08l-.12-.08zm3.96-.36c0-.02.02-.04.04-.06-.02.04-.04.06-.04.06zm.04-.06l.02-.04c0 .02-.02.04-.02.04zm11.312 1c0 .02 0 .02-.02 0v-.02c-.32-.54-.74.2-.92.46-.34.46-.66.9-1.02 1.32-.3.36-.62.72-.86 1.1 0 .04-.04.14-.04.14-.08.12-.2.22-.3.34-.18.18-.36.38-.56.56-.3.28-1.98 1.86-2.2.84-.12-.5.04-1.12.14-1.6.06-.26.12-.5.16-.76.04-.2-.02-.4.08-.6.06-.12.08-.1.22-.14l.34-.12c.22-.08.44-.16.64-.28.3-.18.58-.4.84-.62.62-.52 1.28-1.14 1.54-1.92.14-.44.16-.92-.12-1.3-.26-.34-.7-.52-1.1-.6-1.08-.2-1.9.42-2.52 1.24-.76.94-1.3 2.1-1.56 3.28-.14.58-.22 1.16-.32 1.76-.1.6-.16 1.16.16 1.72-.02-.2-.06-.38-.06-.56 0-.1.04-.2.04-.28 0-.04-.04-.16-.04-.22 0-.18.04-.32.08-.5.02-.18 0-.36.02-.54.02-.2.1-.36.18-.54.06-.16.08-.3.14-.46.06-.14.1-.3.16-.46.02-.1.12-.22.18-.34-.06.18-.18.34-.22.5-.06.24-.02.5-.04.74-.04.26-.12.52-.16.8-.04.26-.16.5-.2.76-.04.24-.12.42-.1.66 0 .14.02.28.04.4.02.16.12.26.22.38.34.4.8.72 1.32.86.36.1.68.08 1.02-.1.48-.26.9-.66 1.26-1.04.34-.38.6-.8.9-1.2.28-.36.62-.7.9-1.06l1.08-1.4.62-.82c.1-.12.16-.22.08-.38zm-4.96.22c.02-.04.02-.06.02-.06.3-.64.52-1.32.94-1.94l.36-.48c.08-.1.22-.28.36-.32.3-.06.38.46.36.66l-.08.42c-.02.12.02.2 0 .3-.04.12-.14.18-.2.28l-.34.44c-.46.54-1.04 1-1.68 1.34.1-.22.16-.44.26-.64zM51.76 6.2c-.08-.64-1.06-1.12-1.6-.74-.44.3-.84 1.12-1.16 1.6l-1.96 2.96c-.3.46-.6.92-.92 1.36-.08.14-.84 1.32-.84 1.32.08.02.26-.26.3-.3-.54.76-1.24 1.56-1.9 2.32-.22.28-1.54 2.02-2.02 1.8-.16-.08-.2-.34-.22-.48-.16-1.06.24-2.12.36-3.14l-.08.2.12-.5c0 .06-.02.12-.02.18l.02-.12-.06.6c.28-1.2.68-2.36 1.14-3.48.12-.28 1.28-3.18 1.52-3.44-.04.02-.1.1-.16.18.38-.7.78-1.36 1.24-2-.1.16-.28.46-.28.46.08.02.88-1.08.88-1.2 0-.02-.06.02-.12.06.2-.26.34-.4.18-.84-.24-.5-.94-1.12-1.52-.82-.12.08-.2.18-.28.28-.42.54-.76 1.24-1.04 1.84-.1.24-.18.28-.34.46-.26.3-.4.7-.58 1.04-.36.72-.64 1.48-.96 2.22-.32.68-.58 1.38-.8 2.1-.1.28-.18.56-.26.84-.08.28-.36.8-.32 1.1l.12-.26c-.1.34-.18.7-.26 1.06-.02 0 .02-.26.02-.26-.08 0-.26.88-.3 1-.08.42-.14.84-.18 1.28-.02.46 0 .88.22 1.3.42.74 1.18 1.46 2 1.72.14.04.3.08.44.06.14-.02.28-.08.38-.18.08-.04.4-.38.18-.22l.38-.36s-.18.22-.24.26c.1-.04.32-.34.32-.34.66-.72 1.32-1.42 1.92-2.2.62-.84 1.18-1.76 1.74-2.66-.16.48-.2.96-.34 1.44-.08.26-.16.52-.22.78-.04.1-.08.58-.04.54 0 .06 0 .1-.02.14 0-.02 0-.04-.02-.06-.06.02-.06.62-.08.72-.08.28-.2.54-.24.86-.1.84-.04 1.82.48 2.54.32.44.8.68 1.34.72.58.02.9-.3 1.2-.74.2-.3.38-.56.5-.9.1-.28.3-.82.18-1.1-.08-.18-.12-.2-.28-.12-.22.08-.48.56-.62.74-.2.22-.6.78-.94.82-.2.02-.16-.02-.2-.26-.02-.14-.02-1.08 0-1.1-.06.08-.08.16-.1.24.08-.66.36-1.46.56-2.16.24-.82.42-1.64.64-2.46.24-.84.56-1.68.9-2.48.08-.18.98-2.16 1.12-2.34-.14.1-.86 1.62-1.1 2.12.48-1.14 1.04-2.24 1.74-3.28.02 0-.2.34-.16.34.06.04.54-.7.5-.72-.02 0-.04 0-.06.02.1-.1.22-.16.2-.36zm-5.22 9.5c-.18.82-.38 1.92-.22 2.74-.18-.92-.12-1.96.04-2.88.12-.76.34-1.46.6-2.16-.22.8-.24 1.5-.42 2.3zM43.2 8.1c.56-1.34 1.36-2.56 2.2-3.72-.84 1.2-1.52 2.5-2.12 3.84-.46 1.06-.88 2.08-1.18 3.14.06-.28.12-.56.22-.84.24-.82.56-1.62.88-2.42zm-.46 1.94c.36-.98.78-1.96 1.26-2.92-.44.92-1.04 2.36-1.26 2.92zm6.34 1.32c-.06.18-.14.36-.22.52l.36-.92-.14.4zm-4.8-4.82v-.02.02zm1.5-2.64zm17.451 8.14c-.12.02-1.16.34-1.1.5 0 .02.04.04.06.04-.34.14-.78.16-1.12.38-.38.26-.74.52-1.14.74.36-.62.7-1.28.92-1.94.08-.24.54-1.72.24-1.88-.04-.02-.06.16-.08.26.02-.8-.24-2.02-1.32-2.1-.66-.04-1.28.78-1.64 1.22-.82 1.04-1.54 2.16-2.26 3.24-.2.3-2.2 3.54-2.2 3.54l.32-.46c-.18.3-.36.62-.52.94.08-.3.84-2.68 1.32-4.08.04-.06.06-.14.08-.2l.12-.34v.02c.18-.54.36-1.08.52-1.64 0 .06-.08.36-.06.36.12.02.28-.82.2-.82l-.06.1c.06-.3.16-.44-.02-.78-.14-.3-.38-.58-.72-.66-.66-.18-.98.36-.94.88 0 .08.1.12.1.2 0 .1-.1.28-.12.36-.14.42-.24.82-.4 1.22-.08.22-.82 2.3-.82 2.3.04-.02.06-.06.08-.1-.06.18-.12.36-.2.54-.02-.02.06-.16.02-.16-.2-.04-.7 1.64-.74 1.8-.08.38-.18.74-.32 1.12-.06.2-.14.4-.2.62 0 .02-.1.5 0 .32-.02.06-.04.1-.04.14 0-.02-.02-.04-.02-.06-.06.02-.1.44-.1.46-.08.22-.18.38-.28.58-.26.64-.4 1.34-.5 2.02-.16 1.04-.64 2.6-.12 3.56.18.34.74 1.04 1.18.62.2-.2.2-.66.22-.9.12-.66.22-1.34.36-2l.18-.92c.02-.04.18-.78.12-.76-.04.04-.08.1-.1.16.1-.32.24-.62.36-.96.16-.48.28-.94.52-1.38.28-.44.52-.92.78-1.36.2-.36.38-.82.6-1.12.06-.08.18-.12.28-.2.2-.22.34-.52.5-.76.3-.48.56-.96.88-1.4.14-.2 1.74-2.44 1.9-2.58-.04.02-.08.04-.12.08.16-.2.34-.38.5-.54.02.02-.12.14-.1.16.04.02.96-.7 1.12-.72.44-.08.28.76.22.98-.1.46-.36.9-.58 1.3-.12.22-.24.42-.34.64-.02.02-.18.4-.12.36l-.12.18c.04-.06.06-.14.06-.14-.08 0-.18.34-.2.4-.12.2-.28.36-.44.52-.42.48-.8.98-1.22 1.44-.32.34-.74.94-1.22 1.06-.34.08-.6-.1-.42.44.12.38.56 1.26 1.04 1.26.44 0 .98-.66 1.24-.94.3-.34.64-.66.96-1.02.08-.12 1-1.22 1.14-1.28h-.02c.2-.1.4-.02.68-.22.16-.12.24-.24.42-.36.14-.08.2-.18.26-.24 0 0 0 .02.02.02.2-.2.48-.14.74-.32.32-.22.72-.5 1-.76.36-.32.86-.5 1.02-1.04-.08.02-.18.02-.24.06zm-10.24 2.04v.02c-.02.26-.2.56-.3.8-.14.38-.26.76-.38 1.14-.26.8-.56 1.6-.88 2.36-.26.64-.5 1.34-.68 2.04.22-.98.58-1.94.86-2.86.26-.84.66-1.66.98-2.48.04-.1.42-.9.38-1.06.02.02.02.04.02.04zm.88.6c-.06.24-.12.46-.2.66.06-.2.12-.44.2-.66zm2.74-3.28l-.38.56c.12-.18.24-.38.38-.56zm3.26 2.42c.02-.06.12-.08.18-.12l-.18.12zm-4.78-2.34c-.02.02-.04.08-.06.16l.06-.16zm-.14.34l.08-.18-.08.18zm1.04.5v-.02c.02-.02.02-.02.02-.04.02-.02 0 .02-.02.06zm-1.04-.5c0 .04-.02.06-.04.08l.04-.08zm-4.24 8.8c0-.02 0-.02.02-.04 0 .02 0 .02-.02.04zm3.28-6.18c0 .02-.02.02-.02.02l.02-.02zM71.13 12.3c-.06-.28-.22-.32-.42-.24-.38.18-.76.58-1.12.82-.82.52-1.64.94-2.52 1.38 0-.02-.02-.06-.04-.12.02.1 0 .14-.02.16-.2-.86-.4-1.72-.56-2.6.08.38.26 1.02.4 1.56-.18-.84-.4-1.88-.38-1.88-.04.02-.04.06-.04.1-.04-.24-.1-.54-.06-.8.02-.3.18-.56.28-.84-.02.14-.06.32-.06.32.12.02.2-.72.2-.8-.02-.12-.28-.5-.28-.4-.54-.5-1.6.6-1.76 1.08-.12.32-.12.66-.1 1 .02.34.12.64.22.96.06.24-.02.4 0 .66.04.4.18.8.26 1.18.08.3.34.9.28 1.18-.04.28-.64.52-.9.68-.34.22-.68.48-1.02.74-.6.46-1.24 1.04-1.48 1.78-.04.1-.18.54-.04.62.02.02.08-.32.1-.36-.26 1.32 1.04 1.96 2.26 1.98 1.38.04 2.34-.76 2.82-2 .2-.54.26-1.1.24-1.66 0-.38-.04-.74-.1-1.1-.04-.32-.08-.3.14-.48.16-.12.4-.2.56-.28.64-.34 1.22-.74 1.8-1.16.42-.3 1.42-.82 1.34-1.46v-.02zm-8.08 6.88c-.52-.16 0-.98.18-1.24.3-.4.74-.7 1.14-.98l.6-.4c.06-.04.44-.34.32-.3l.24-.14-.14.12c.04-.02.1-.04.14-.08.02.48.02.96-.12 1.44-.02.08-.4.88-.56 1.04l.1-.08c-.18.22-.38.4-.62.54 0-.02.18-.14.16-.16l-.56.22c-.28.06-.6.12-.88.02zm2.52.58c-.52.22-1.02.32-1.56.34.98-.06 2-.54 2.58-1.36-.22.44-.5.78-1.02 1.02zm1.46-5.68c-.02-.14-.06-.34-.12-.56.04.22.08.44.12.56zm.26 2.08c-.02-.02-.02-.06-.02-.1 0 .04.02.08.02.1z" fill="#fff"/></svg>