<svg width="96" height="38" fill="none" xmlns="http://www.w3.org/2000/svg"><path d="M3.208 22.6l-.03.03c.03-.03.03-.03.03-.06v-.15c.33-1.77.96-3.51 1.59-5.22.66-1.8 1.29-3.57 2.13-5.28.78-1.62 1.68-3.21 2.7-4.68.9-1.35 1.98-2.82 3.36-3.72.42-.12.84-.57 1.38-.48.54.09.54.66.42 1.2.15-.42.24-.87-.12-1.17-.48-.36-1.41.21-1.8.48-.18.06-.36.18-.51.3.09-.09.21-.18.36-.27l-.15.06.42-.24c.48-.27 1.56-.87 1.92-.09.27.63-.15 1.68-.36 2.28-.39 1.02-.87 1.98-1.38 2.94.09-.21.45-1.02.45-1.02-.21-.03-1.17 2.19-1.35 2.25h.03c-.12.09-.21.18-.21.21-.06.36.36.27.6.24 1.02-.12 2.34-.99 3-1.74.72-.81.99-2.04.99-3.12v-.03c-.03-2.04-1.44-4.62-3.87-4.47-1.35.06-2.61 1.38-3.48 2.28-.63.72-1.23 1.5-1.77 2.28-.24.36-.48.69-.69 1.05-.24.33-.72.84-.84 1.23 0 0 .15-.18.27-.3-.33.51-.63 1.05-.93 1.56-.03-.03.18-.45.18-.45-.27-.06-1.5 2.4-1.65 2.67-.54.99-1.02 1.98-1.35 3.03-.36 1.17-.84 2.28-1.2 3.42-.18.57-.36 1.11-.48 1.68-.06.27-.12.51-.15.78 0 .03-.06.51 0 .45-.06.21-.06.48-.09.69 0 0 0-.51.03-.57-.12.15-.03.72-.06.78-.15 1.14-.39 2.34 0 3.45.51 1.53 1.77 2.79 3.15 3.6.72.45 1.68.96 2.58.9 1.05-.06 2.07-.93 2.85-1.56 2.28-1.92 4.35-4.62 4.74-7.68.03-.21.18-1.26-.18-1.29-.33-.03-.57.69-.69.87-.9 1.47-1.95 2.85-3.12 4.11-1.2 1.32-2.7 2.73-4.53 3.15-.24.06-.51.09-.78.09-.36-.03-.69-.12-.96-.39-.15-.15-.3-.66-.48-.75 0-.15-.03-.3-.06-.39l-.09-.18c-.03-.9 0-1.74.15-2.67v-.03c0-.03.03-.03.03-.06zm5.28-14.67c-1.17 1.92-2.16 3.9-3.15 5.94-.57 1.2-1.14 2.43-1.59 3.72.63-2.01 1.38-3.93 2.28-5.85 1.08-2.31 2.52-4.56 4.23-6.42-.69.84-1.29 1.8-1.77 2.61zm3.09-3.3c-.42.42-.81.9-1.17 1.35.57-.75 1.17-1.5 1.92-2.1-.27.24-.54.54-.75.75zm3.06.24c.06-.18.12-.39.15-.63-.06.27-.18.54-.18.75.03-.06.03-.09.03-.12zM29.16 17.53s.03.03 0-.03c-.15-.21-.36-.06-.57 0-.87.18-1.77.39-2.67.54.33-1.08.66-2.22.78-3.33.06-.42.09-.87 0-1.29-.06-.27-.15-.54-.3-.78 0 0-.36-.45-.27-.21l-.03-.03-.12-.24.12.12c.03-.18-.48-.51-.48-.51-.75-.75-1.77-1.32-2.79-.75-.63.36-1.14.96-1.56 1.56-.15.21-.3.45-.42.69-.12.24-.3 1.02-.48 1.14-.15.12-.6.15-.81.27-.3.12-.57.27-.81.45-.57.36-1.02.87-1.44 1.38-.72.96-1.08 2.04-1.59 3-.96 1.83.09 4.23 1.86 5.1.57.27 1.23.39 1.83.33.63-.09 1.23-.42 1.71-.78.45-.33 1.44-.93 1.62-1.44 0-.03-.06 0-.15.09l.87-1.02c.03.03-.21.33-.21.33.21.09 1.29-1.5 1.41-1.62.21-.36.42-.75.66-1.11.21-.27.15-.24.45-.36-.03.03.36-.09.42-.09.33-.06 3.84-.3 2.97-1.41zm-10.38 6.06h-.03c-2.49.36.39-4.92.45-5.22l-.18.27c.45-.9.87-1.62 1.08-1.86.33 1.5 1.95 2.07 3.27 2.25-.87 1.74-2.49 4.17-4.59 4.56zm5.91-8.31c-.21.84-.39 1.95-.84 2.7-.15.3-.06.21-.36.27-.18.06-.57 0-.75-.03-.33-.03-.72-.09-.96-.3-.42-.36-.36-.93-.3-1.44.06-.51.21-.99.39-1.47.09-.18.66-1.14.57-1.32-.03-.09-.36.45-.39.48.18-.33.36-.51.51-.72-.03 0 0-.03.03-.09v.03l.03-.06s0-.03.03-.03c.45-.6 1.56-1.95 2.16-1.02.45.78.03 2.25-.12 3zm-2.07-1.95l.03-.03c0 .03-.03.03-.03.03z" fill="#fff"/><path d="M44.808 17.68v-.03c-.18-.99-1.53.66-1.71.81-.87.96-1.68 2.01-2.46 3.06-.78 1.08-1.53 2.16-2.34 3.24-.39.54-.78 1.05-1.23 1.53-.15.18-.51.69-.78.69-1.05 0-.24-4.23-.12-4.89.18-1.17.27-2.73 1.02-3.66.18-.24 2.22-2.85 2.22-2.85-.06-.03-.3.27-.45.45l1.29-1.74.09-.12h.03-.03l.24-.33c.03.03 0 .09-.03.15l.27-.3.78-1.02c.57-.81 1.11-1.68 1.62-2.52.81-1.38 1.92-3.36 1.32-5.04-.45-1.23-2.1-1.47-3.21-1.05-.81.3-1.5.93-2.07 1.59-.3.39-.6.81-.87 1.26-.09.12-.48 1.08-.57 1.2h.03c-.18.33-.36.66-.48.99.06-.24.21-.72.33-.81-.24.18-.45 1.05-.51 1.14-1.14 2.49-2.13 5.01-2.85 7.65-.81-.93-2.1-2.52-3.51-1.95-1.17.48-2.04 1.71-2.64 2.79-.54.96-.69 1.95-1.08 2.88-.69 1.59-1.02 4.86 1.32 5.34.72.15 1.38-.3 1.95-.69 1.02-.75 1.98-1.62 2.88-2.52-.15 1.59-.48 3.99.81 5.25 1.59 1.62 3.18-.57 4.14-1.77 1.23-1.56 2.19-3.3 3.42-4.8.6-.72 1.2-1.44 1.83-2.1.48-.48 1.44-1.08 1.35-1.83zm-11.04 1.98c-.03.09-.03.15-.03.15-.12.72-.12 1.35-.63 1.86-.45.48-.93.93-1.41 1.38-.45.42-1.53 1.65-2.22 1.59-.84-.09-.21-2.01.21-3.18-.45 1.2-1.17 3.15-.18 3.21.27.03.72-.21 1.11-.54-.36.33-.96.78-1.32.6-.69-.3-.09-2.01.03-2.49.39-1.38.96-2.7 1.62-3.96.33-.63.81-1.65 1.44-1.71l-.15.09c.03-.03.06-.03.09-.03.21-.06.42.09.57.21.39.27.63.78.9 1.17.3.48.09.99-.03 1.53v.12zm4.83-6.93c0-.03 0-.09.03-.12v-.03c.03-.09.06-.12.06-.12v-.03c.69-1.92 1.44-3.84 2.52-5.58.27-.45 1.05-1.83 1.74-1.44.27.15.33.54.33.81.12 1.8-1.32 3.93-2.22 5.37a50.73 50.73 0 01-3.45 4.86l.66-.69.6-.75-1.53 1.98-.21.27-.12.12c.03-.18.18-.36.33-.57-.06.06-.12.12-.15.18.39-1.29.81-2.58 1.26-3.87-.03.03 0-.03.03-.15l.09-.15c0-.03 0-.06.03-.09zm-2.52 2.46c-.06.15-.24.84-.33.93 0 .03-.03.06-.06.06.24-.3.09-.69.21-1.05.06-.18.36-.51.42-.75 0 .24-.15.66-.24.81zm-4.77 8.31c.75-.66 1.47-1.35 2.16-2.07-.06.39-.99 1.05-1.32 1.35-.39.39-.84.78-1.29 1.14h-.03l.48-.42zm5.31-11.04c-.12.36-.27.69-.45 1.02.15-.45.24-.9.45-1.32.18-.33.39-.75.54-1.14-.15.48-.39.99-.54 1.44zm1.95.36l-.12.3c0-.03.03-.09.03-.15l.09-.15zm-6.48 3.96c-.12.09-.21.21-.24.21.06 0 .15-.12.24-.21zm.84-.06c.06.03.12.06.18.12l-.18-.12zm5.94-.54c0-.03.03-.06.06-.09-.03.06-.06.09-.06.09zm.06-.09l.03-.06c0 .03-.03.06-.03.06z" fill="#fff"/><path d="M54.095 17.59c0 .03 0 .03-.03 0v-.03c-.48-.81-1.11.3-1.38.69-.51.69-.99 1.35-1.53 1.98-.45.54-.93 1.08-1.29 1.65 0 .06-.06.21-.06.21-.12.18-.3.33-.45.51-.27.27-.54.57-.84.84-.45.42-2.97 2.79-3.3 1.26-.18-.75.06-1.68.21-2.4.09-.39.18-.75.24-1.14.06-.3-.03-.6.12-.9.09-.18.12-.15.33-.21l.51-.18c.33-.12.66-.24.96-.42.45-.27.87-.6 1.26-.93.93-.78 1.92-1.71 2.31-2.88.21-.66.24-1.38-.18-1.95-.39-.51-1.05-.78-1.65-.9-1.62-.3-2.85.63-3.78 1.86-1.14 1.41-1.95 3.15-2.34 4.92-.21.87-.33 1.74-.48 2.64-.15.9-.24 1.74.24 2.58-.03-.3-.09-.57-.09-.84 0-.15.06-.3.06-.42 0-.06-.06-.24-.06-.33 0-.27.06-.48.12-.75.03-.27 0-.54.03-.81.03-.3.15-.54.27-.81.09-.24.12-.45.21-.69.09-.21.15-.45.24-.69.03-.15.18-.33.27-.51-.09.27-.27.51-.33.75-.09.36-.03.75-.06 1.11-.06.39-.18.78-.24 1.2-.06.39-.24.75-.3 1.14-.06.36-.18.63-.15.99 0 .21.03.42.06.6.03.24.18.39.33.57.51.6 1.2 1.08 1.98 1.29.54.15 1.02.12 1.53-.15.72-.39 1.35-.99 1.89-1.56.51-.57.9-1.2 1.35-1.8.42-.54.93-1.05 1.35-1.59l1.62-2.1.93-1.23c.15-.18.24-.33.12-.57zm-7.44.33c.03-.06.03-.09.03-.09.45-.96.78-1.98 1.41-2.91l.54-.72c.12-.15.33-.42.54-.48.45-.09.57.69.54.99l-.12.63c-.03.18.03.3 0 .45-.06.18-.21.27-.3.42l-.51.66c-.69.81-1.56 1.5-2.52 2.01.15-.33.24-.66.39-.96z" fill="#fff"/><path d="M70.342 8.8c-.12-.96-1.59-1.68-2.4-1.11-.66.45-1.26 1.68-1.74 2.4l-2.94 4.44c-.45.69-.9 1.38-1.38 2.04-.12.21-1.26 1.98-1.26 1.98.12.03.39-.39.45-.45-.81 1.14-1.86 2.34-2.85 3.48-.33.42-2.31 3.03-3.03 2.7-.24-.12-.3-.51-.33-.72-.24-1.59.36-3.18.54-4.71l-.12.3.18-.75c0 .09-.03.18-.03.27l.03-.18-.09.9c.42-1.8 1.02-3.54 1.71-5.22.18-.42 1.92-4.77 2.28-5.16-.06.03-.15.15-.24.27.57-1.05 1.17-2.04 1.86-3-.15.24-.42.69-.42.69.12.03 1.32-1.62 1.32-1.8 0-.03-.09.03-.18.09.3-.39.51-.6.27-1.26-.36-.75-1.41-1.68-2.28-1.23-.18.12-.3.27-.42.42-.63.81-1.14 1.86-1.56 2.76-.15.36-.27.42-.51.69-.39.45-.6 1.05-.87 1.56-.54 1.08-.96 2.22-1.44 3.33-.48 1.02-.87 2.07-1.2 3.15-.15.42-.27.84-.39 1.26-.12.42-.54 1.2-.48 1.65l.18-.39c-.15.51-.27 1.05-.39 1.59-.03 0 .03-.39.03-.39-.12 0-.39 1.32-.45 1.5-.12.63-.21 1.26-.27 1.92-.03.69 0 1.32.33 1.95.63 1.11 1.77 2.19 3 2.58.21.06.45.12.66.09.21-.03.42-.12.57-.27.12-.06.6-.57.27-.33l.57-.54s-.27.33-.36.39c.15-.06.48-.51.48-.51.99-1.08 1.98-2.13 2.88-3.3.93-1.26 1.77-2.64 2.61-3.99-.24.72-.3 1.44-.51 2.16-.12.39-.24.78-.33 1.17-.06.15-.12.87-.06.81 0 .09 0 .15-.03.21 0-.03 0-.06-.03-.09-.09.03-.09.93-.12 1.08-.12.42-.3.81-.36 1.29-.15 1.26-.06 2.73.72 3.81.48.66 1.2 1.02 2.01 1.08.87.03 1.35-.45 1.8-1.11.3-.45.57-.84.75-1.35.15-.42.45-1.23.27-1.65-.12-.27-.18-.3-.42-.18-.33.12-.72.84-.93 1.11-.3.33-.9 1.17-1.41 1.23-.3.03-.24-.03-.3-.39-.03-.21-.03-1.62 0-1.65-.09.12-.12.24-.15.36.12-.99.54-2.19.84-3.24.36-1.23.63-2.46.96-3.69.36-1.26.84-2.52 1.35-3.72.12-.27 1.47-3.24 1.68-3.51-.21.15-1.29 2.43-1.65 3.18.72-1.71 1.56-3.36 2.61-4.92.03 0-.3.51-.24.51.09.06.81-1.05.75-1.08-.03 0-.06 0-.09.03.15-.15.33-.24.3-.54zm-7.83 14.25c-.27 1.23-.57 2.88-.33 4.11-.27-1.38-.18-2.94.06-4.32.18-1.14.51-2.19.9-3.24-.33 1.2-.36 2.25-.63 3.45zm-5.01-11.4c.84-2.01 2.04-3.84 3.3-5.58-1.26 1.8-2.28 3.75-3.18 5.76-.69 1.59-1.32 3.12-1.77 4.71.09-.42.18-.84.33-1.26.36-1.23.84-2.43 1.32-3.63zm-.69 2.91a42.85 42.85 0 011.89-4.38c-.66 1.38-1.56 3.54-1.89 4.38zm9.51 1.98c-.09.27-.21.54-.33.78l.54-1.38-.21.6zm-7.2-7.23v-.03.03zm2.25-3.96zm24.375 12.21c-.18.03-1.74.51-1.65.75 0 .03.06.06.09.06-.51.21-1.17.24-1.68.57-.57.39-1.11.78-1.71 1.11.54-.93 1.05-1.92 1.38-2.91.12-.36.81-2.58.36-2.82-.06-.03-.09.24-.12.39.03-1.2-.36-3.03-1.98-3.15-.99-.06-1.92 1.17-2.46 1.83-1.23 1.56-2.31 3.24-3.39 4.86-.3.45-3.3 5.31-3.3 5.31s.21-.3.48-.69c-.27.45-.54.93-.78 1.41.12-.45 1.26-4.02 1.98-6.12.06-.09.09-.21.12-.3l.18-.51v.03c.27-.81.54-1.62.78-2.46 0 .09-.12.54-.09.54.18.03.42-1.23.3-1.23l-.09.15c.09-.45.24-.66-.03-1.17-.21-.45-.57-.87-1.08-.99-.99-.27-1.47.54-1.41 1.32 0 .12.15.18.15.3 0 .15-.15.42-.18.54-.21.63-.36 1.23-.6 1.83-.12.33-1.23 3.45-1.23 3.45.06-.03.09-.09.12-.15-.09.27-.18.54-.3.81-.03-.03.09-.24.03-.24-.3-.06-1.05 2.46-1.11 2.7-.12.57-.27 1.11-.48 1.68-.09.3-.21.6-.3.93 0 .03-.15.75 0 .48-.03.09-.06.15-.06.21 0-.03-.03-.06-.03-.09-.09.03-.15.66-.15.69-.12.33-.27.57-.42.87-.39.96-.6 2.01-.75 3.03-.24 1.56-.96 3.9-.18 5.34.27.51 1.11 1.56 1.77.93.3-.3.3-.99.33-1.35.18-.99.33-2.01.54-3l.27-1.38c.03-.06.27-1.17.18-1.14-.06.06-.12.15-.15.24.15-.48.36-.93.54-1.44.24-.72.42-1.41.78-2.07.42-.66.78-1.38 1.17-2.04.3-.54.57-1.23.9-1.68.09-.12.27-.18.42-.3.3-.33.51-.78.75-1.14.45-.72.84-1.44 1.32-2.1.21-.3 2.61-3.66 2.85-3.87-.06.03-.12.06-.18.12.24-.3.51-.57.75-.81.03.03-.18.21-.15.24.06.03 1.44-1.05 1.68-1.08.66-.12.42 1.14.33 1.47-.15.69-.54 1.35-.87 1.95-.18.33-.36.63-.51.96-.03.03-.27.6-.18.54l-.18.27a.78.78 0 00.09-.21c-.12 0-.27.51-.3.6-.18.3-.42.54-.66.78-.63.72-1.2 1.47-1.83 2.16-.48.51-1.11 1.41-1.83 1.59-.51.12-.9-.15-.63.66.18.57.84 1.89 1.56 1.89.66 0 1.47-.99 1.86-1.41.45-.51.96-.99 1.44-1.53.12-.18 1.5-1.83 1.71-1.92h-.03c.3-.15.6-.03 1.02-.33.24-.18.36-.36.63-.54.21-.12.3-.27.39-.36 0 0 0 .03.03.03.3-.3.72-.21 1.11-.48.48-.33 1.08-.75 1.5-1.14.54-.48 1.29-.75 1.53-1.56-.12.03-.27.03-.36.09zm-15.36 3.06v.03c-.03.39-.3.84-.45 1.2-.21.57-.39 1.14-.57 1.71-.39 1.2-.84 2.4-1.32 3.54-.39.96-.75 2.01-1.02 3.06.33-1.47.87-2.91 1.29-4.29.39-1.26.99-2.49 1.47-3.72.06-.15.63-1.35.57-1.59.03.03.03.06.03.06zm1.32.9c-.09.36-.18.69-.3.99.09-.3.18-.66.3-.99zm4.11-4.92l-.57.84c.18-.27.36-.57.57-.84zm4.89 3.63c.03-.09.18-.12.27-.18l-.27.18zm-7.17-3.51c-.03.03-.06.12-.09.24l.09-.24zm-.21.51l.12-.27-.12.27zm1.56.75v-.03c.03-.03.03-.03.03-.06.03-.03 0 .03-.03.09zm-1.56-.75c0 .06-.03.09-.06.12l.06-.12zm-6.36 13.2c0-.03 0-.03.03-.06 0 .03 0 .03-.03.06zm4.92-9.27c0 .03-.03.03-.03.03l.03-.03z" fill="#fff"/><path d="M95.794 17.95c-.09-.42-.33-.48-.63-.36-.57.27-1.14.87-1.68 1.23-1.23.78-2.46 1.41-3.78 2.07 0-.03-.03-.09-.06-.18.03.15 0 .21-.03.24-.3-1.29-.6-2.58-.84-3.9.12.57.39 1.53.6 2.34-.27-1.26-.6-2.82-.57-2.82-.06.03-.06.09-.06.15-.06-.36-.15-.81-.09-1.2.03-.45.27-.84.42-1.26-.03.21-.09.48-.09.48.18.03.3-1.08.3-1.2-.03-.18-.42-.75-.42-.6-.81-.75-2.4.9-2.64 1.62-.18.48-.18.99-.15 1.5s.18.96.33 1.44c.09.36-.03.6 0 .99.06.6.27 1.2.39 1.77.12.45.51 1.35.42 1.77-.06.42-.96.78-1.35 1.02-.51.33-1.02.72-1.53 1.11-.9.69-1.86 1.56-2.22 2.67-.06.15-.27.81-.06.93.03.03.12-.48.15-.54-.39 1.98 1.56 2.94 3.39 2.97 2.07.06 3.51-1.14 4.23-3 .3-.81.39-1.65.36-2.49 0-.57-.06-1.11-.15-1.65-.06-.48-.12-.45.21-.72.24-.18.6-.3.84-.42.96-.51 1.83-1.11 2.7-1.74.63-.45 2.13-1.23 2.01-2.19v-.03zm-12.12 10.32c-.78-.24 0-1.47.27-1.86.45-.6 1.11-1.05 1.71-1.47l.9-.6c.09-.06.66-.51.48-.45l.36-.21-.21.18c.06-.03.15-.06.21-.12.03.72.03 1.44-.18 2.16-.03.12-.6 1.32-.84 1.56l.15-.12c-.27.33-.57.6-.93.81 0-.03.27-.21.24-.24l-.84.33c-.42.09-.9.18-1.32.03zm3.78.87c-.78.33-1.53.48-2.34.51 1.47-.09 3-.81 3.87-2.04-.33.66-.75 1.17-1.53 1.53zm2.19-8.52a7.25 7.25 0 00-.18-.84c.06.33.12.66.18.84zm.39 3.12c-.03-.03-.03-.09-.03-.15 0 .06.03.12.03.15z" fill="#fff"/></svg>